<svg width="19" height="20" viewBox="0 0 19 20" fill="none" xmlns="http://www.w3.org/2000/svg">
<path d="M18.6182 8.03546H17.861V7.99399H9.40055V11.991H14.7133C13.9382 14.3177 11.8555 15.988 9.40055 15.988C6.28567 15.988 3.76022 13.3035 3.76022 9.99249C3.76022 6.68148 6.28567 3.99699 9.40055 3.99699C10.8384 3.99699 12.1464 4.57356 13.1424 5.51535L15.8014 2.68898C14.1224 1.02573 11.8766 0 9.40055 0C4.20909 0 0 4.47414 0 9.99249C0 15.5108 4.20909 19.985 9.40055 19.985C14.592 19.985 18.8011 15.5108 18.8011 9.99249C18.8011 9.32249 18.7362 8.66848 18.6182 8.03546Z" fill="#FFC107"/>
<path d="M9.40057 19.9848C11.8287 19.9848 14.035 18.9971 15.7032 17.3908L12.7937 14.7737C11.8182 15.5624 10.6262 15.9889 9.40057 15.9878C6.95549 15.9878 4.87938 14.3306 4.09726 12.0178L1.03174 14.5284C2.58753 17.7645 5.74705 19.9848 9.40057 19.9848Z" fill="#4CAF50"/>
<path d="M18.6181 8.03561H17.8609V7.99414H9.40039V11.9911H14.7131C14.3424 13.0985 13.6745 14.0662 12.7921 14.7745L12.7935 14.7735L15.703 17.3906C15.4971 17.5894 18.8009 14.9889 18.8009 9.99264C18.8009 9.32264 18.7361 8.66863 18.6181 8.03561Z" fill="#1976D2"/>
<path d="M1.08398 5.34148L4.17253 7.74917C5.00824 5.54983 7.03218 3.99699 9.40065 3.99699C10.8385 3.99699 12.1465 4.57356 13.1425 5.51535L15.8015 2.68898C14.1225 1.02573 11.8768 0 9.40065 0C5.7899 0 2.65858 2.16687 1.08398 5.34148Z" fill="#FF3D00"/>
</svg>
