<svg width="20" height="20" viewBox="0 0 20 20" fill="none" xmlns="http://www.w3.org/2000/svg">
<path d="M12.1184 4.06581C12.0742 3.02993 11.9428 2.36987 11.5523 1.86199C11.4008 1.66492 11.2242 1.48852 11.0266 1.3373C10.2597 0.75 9.14649 0.75 6.92005 0.75H6.4454C3.76058 0.75 2.41817 0.75 1.5841 1.58243C0.750038 2.41486 0.750019 3.75466 0.75001 6.43421L0.75 13.0659C0.749991 15.7454 0.749981 17.0852 1.58406 17.9176C2.41813 18.7501 3.76055 18.7501 6.4454 18.7501H6.92C9.14649 18.7501 10.2597 18.7501 11.0266 18.1628C11.2241 18.0116 11.4008 17.8352 11.5523 17.6382C11.9428 17.1302 12.0742 16.47 12.1184 15.4339" stroke="black" stroke-width="1.5" stroke-linecap="round" stroke-linejoin="round"/>
<path d="M17.8027 9.74979H6.43433M15.4343 13.0657C15.4343 13.0657 18.7501 10.6237 18.7501 9.74989C18.7501 8.87613 15.4343 6.43408 15.4343 6.43408" stroke="black" stroke-width="1.5" stroke-linecap="round" stroke-linejoin="round"/>
</svg>
